<?xml version="1.0" encoding="UTF-8"?><svg id="Layer_2" xmlns="http://www.w3.org/2000/svg" xmlns:xlink="http://www.w3.org/1999/xlink" viewBox="0 0 97.65 106.18"><defs><style>.cls-1{fill:url(#linear-gradient);}.cls-2{fill:url(#linear-gradient-2);}</style><linearGradient id="linear-gradient" x1="57.59" y1="72.69" x2="96.05" y2="49.87" gradientTransform="matrix(1, 0, 0, 1, 0, 0)" gradientUnits="userSpaceOnUse"><stop offset=".02" stop-color="#26a9e0"/><stop offset="1" stop-color="#1b75bb"/></linearGradient><linearGradient id="linear-gradient-2" x1="-8.85" y1="14.04" x2="69.82" y2="61.31" gradientTransform="matrix(1, 0, 0, 1, 0, 0)" gradientUnits="userSpaceOnUse"><stop offset=".2" stop-color="#37b34a"/><stop offset=".37" stop-color="#4bb747"/><stop offset=".72" stop-color="#80c240"/><stop offset=".79" stop-color="#8bc53f"/></linearGradient></defs><g id="Layer_1-2"><g><path d="M51.56,36.82c1.94-1.09,3.89-2.16,5.83-3.26,9.78-5.51,19.56-11.03,29.32-16.56,1.35-.77,2.79-1.4,4.01-2.4,.69-.56,1.21-1.24,1.02-2.21-.2-1.03-.95-1.5-1.87-1.74-9.24-2.42-18.49-4.84-27.74-7.24-1.93-.5-3.87-1.01-5.81-1.48-1.63-.4-3.25-.9-4.89-1.29-.9-.3-1.82-.52-2.75-.62-1.53-.17-2.82,.46-4.1,1.2-9.72,5.66-19.45,11.3-29.17,16.97-3.06,1.78-6.19,3.44-9.13,5.42C2.25,26.34,0,30.06,0,35.01c0,14.54,0,29.07,0,43.61,0,2.45,1.04,4.31,3.18,5.54,7.96,4.58,15.91,9.18,23.87,13.77,4.43,2.56,8.87,5.11,13.29,7.68,.75,.43,1.5,.72,2.38,.46,1.35-.4,1.98-1.34,1.98-2.98,0-10.23,0-20.46,0-30.68,0-4.06,0-8.13,0-12.19,0-2.39-.93-4.3-3.02-5.5-.74-.43-1.48-.87-2.22-1.29-3.52-1.98-7.05-3.98-10.57-5.96-2.02-1.14-4.04-2.28-6.06-3.42-3.98-2.24-7.97-4.48-11.94-6.73-1.93-1.09-2.83-3.05-2.39-5.07,.54-2.43,2.78-3.88,5.33-3.28,4.17,.99,8.31,2.1,12.46,3.15,6.95,1.77,13.89,3.54,20.84,5.29,1.53,.38,3.02,.21,4.41-.59Zm25.56-9.06c.23,.13,.38,.22,.53,.31,3.13,1.73,6.27,3.46,9.33,5.32,1.71,1.04,1.66,2.89-.09,3.88-9.36,5.28-18.72,10.56-28.08,15.83-1.09,.61-2.24,1.13-3.26,1.86-1.83,1.31-2.62,3.16-2.61,5.41,.03,6.18,.01,12.37,.01,18.55,0,8.08,.04,16.17-.02,24.25-.02,2.5,2.36,3.69,4.34,2.49,4.42-2.67,8.92-5.19,13.39-7.77,7.96-4.59,15.91-9.18,23.87-13.78,2-1.15,3.1-2.91,3.1-5.19,.03-14.55,.02-29.11,.02-43.66,0-2.84-.96-5.16-3.59-6.58-3.07-1.66-6.13-3.36-9.19-5.04-.2-.11-.38-.15-.6-.02-2.35,1.37-4.71,2.73-7.14,4.14Z"/><path class="cls-1" d="M97.64,35.26c0-2.84-.96-5.16-3.59-6.58-3.07-1.66-6.13-3.36-9.19-5.04-.2-.11-.38-.15-.6-.02-2.35,1.37-4.71,2.73-7.14,4.14,.23,.13,.38,.22,.53,.31,3.13,1.73,6.27,3.46,9.33,5.32,1.71,1.04,1.66,2.89-.09,3.88-9.36,5.28-18.72,10.56-28.08,15.83-1.09,.61-2.24,1.13-3.26,1.86-1.83,1.31-2.62,3.16-2.61,5.41,.03,6.18,.01,12.37,.01,18.55,0,8.08,.04,16.17-.02,24.25-.02,2.5,2.36,3.69,4.34,2.49,4.42-2.67,8.92-5.19,13.39-7.77,7.96-4.59,15.91-9.18,23.87-13.78,2-1.15,3.1-2.91,3.1-5.19,.03-14.55,.02-29.11,.02-43.66Z"/><path class="cls-2" d="M57.39,33.56c9.78-5.51,19.56-11.03,29.32-16.56,1.35-.77,2.79-1.4,4.01-2.4,.69-.56,1.21-1.24,1.02-2.21-.2-1.03-.95-1.5-1.87-1.74-9.24-2.42-18.49-4.84-27.74-7.24-1.93-.5-3.87-1.01-5.81-1.48-1.63-.4-3.25-.9-4.89-1.29-.9-.3-1.82-.52-2.75-.62-1.53-.17-2.82,.46-4.1,1.2-9.72,5.66-19.45,11.3-29.17,16.97-3.06,1.78-6.19,3.44-9.13,5.42C2.25,26.34,0,30.06,0,35.01c0,14.54,0,29.07,0,43.61,0,2.45,1.04,4.31,3.18,5.54,7.96,4.58,15.91,9.18,23.87,13.77,4.43,2.56,8.87,5.11,13.29,7.68,.75,.43,1.5,.72,2.38,.46,1.35-.4,1.98-1.34,1.98-2.98,0-10.23,0-20.46,0-30.68,0-4.06,0-8.13,0-12.19,0-2.39-.93-4.3-3.02-5.5-.74-.43-1.48-.87-2.22-1.29-3.52-1.98-7.05-3.98-10.57-5.96-2.02-1.14-4.04-2.28-6.06-3.42-3.98-2.24-7.97-4.48-11.94-6.73-1.93-1.09-2.83-3.05-2.39-5.07,.54-2.43,2.78-3.88,5.33-3.28,4.17,.99,8.31,2.1,12.46,3.15,6.95,1.77,13.89,3.54,20.84,5.29,1.53,.38,3.02,.21,4.41-.59-.01-.06-.03-.13-.05-.19,.02,.06,.03,.13,.05,.19,1.94-1.09,3.89-2.16,5.83-3.26Z"/></g></g></svg>