<?xml version="1.0" encoding="UTF-8"?><svg id="Layer_2" xmlns="http://www.w3.org/2000/svg" viewBox="0 0 53.3 57.96"><defs><style>.cls-1{fill:#fff;}</style></defs><g id="Layer_1-2"><g><path class="cls-1" d="M28.14,20.1c1.06-.59,2.12-1.18,3.18-1.78,5.34-3.01,10.67-6.02,16.01-9.04,.74-.42,1.53-.77,2.19-1.31,.37-.31,.66-.67,.56-1.21-.11-.56-.52-.82-1.02-.95-5.05-1.32-10.09-2.64-15.14-3.95-1.06-.27-2.11-.55-3.17-.81-.89-.22-1.77-.49-2.67-.7-.49-.16-.99-.28-1.5-.34-.83-.09-1.54,.25-2.24,.65-5.31,3.09-10.62,6.17-15.92,9.26-1.67,.97-3.38,1.88-4.98,2.96C1.23,14.38,0,16.41,0,19.11c0,7.93,0,15.87,0,23.8,0,1.34,.57,2.35,1.74,3.03,4.35,2.5,8.69,5.01,13.03,7.52,2.42,1.4,4.84,2.79,7.26,4.19,.41,.24,.82,.39,1.3,.25,.74-.22,1.08-.73,1.08-1.62,0-5.58,0-11.17,0-16.75,0-2.22,0-4.44,0-6.66,0-1.3-.51-2.35-1.65-3-.4-.23-.81-.47-1.21-.7-1.92-1.08-3.85-2.17-5.77-3.26-1.1-.62-2.21-1.25-3.31-1.87-2.17-1.22-4.35-2.44-6.52-3.67-1.05-.6-1.55-1.66-1.3-2.77,.29-1.33,1.52-2.12,2.91-1.79,2.27,.54,4.54,1.14,6.8,1.72,3.79,.96,7.58,1.93,11.38,2.89,.83,.21,1.65,.11,2.41-.32Zm13.95-4.95c.12,.07,.21,.12,.29,.17,1.71,.95,3.42,1.89,5.09,2.9,.93,.57,.9,1.58-.05,2.12-5.11,2.88-10.22,5.76-15.33,8.64-.59,.34-1.23,.62-1.78,1.01-1,.71-1.43,1.72-1.43,2.96,.02,3.38,0,6.75,0,10.13,0,4.41,.02,8.82-.01,13.24-.01,1.36,1.29,2.02,2.37,1.36,2.41-1.46,4.87-2.83,7.31-4.24,4.34-2.51,8.69-5.01,13.03-7.52,1.09-.63,1.69-1.59,1.69-2.83,.02-7.94,0-15.89,0-23.83,0-1.55-.52-2.82-1.96-3.59-1.68-.91-3.35-1.83-5.02-2.75-.11-.06-.21-.08-.33-.01-1.28,.75-2.57,1.49-3.9,2.26Z"/><path class="cls-1" d="M53.3,19.25c0-1.55-.52-2.82-1.96-3.59-1.68-.91-3.35-1.83-5.02-2.75-.11-.06-.21-.08-.33-.01-1.28,.75-2.57,1.49-3.9,2.26,.12,.07,.21,.12,.29,.17,1.71,.95,3.42,1.89,5.09,2.9,.93,.57,.9,1.58-.05,2.12-5.11,2.88-10.22,5.76-15.33,8.64-.59,.34-1.23,.62-1.78,1.01-1,.71-1.43,1.72-1.43,2.96,.02,3.38,0,6.75,0,10.13,0,4.41,.02,8.82-.01,13.24-.01,1.36,1.29,2.02,2.37,1.36,2.41-1.46,4.87-2.83,7.31-4.24,4.34-2.51,8.69-5.01,13.03-7.52,1.09-.63,1.69-1.59,1.69-2.83,.02-7.94,0-15.89,0-23.83Z"/><path class="cls-1" d="M31.33,18.32c5.34-3.01,10.67-6.02,16.01-9.04,.74-.42,1.53-.77,2.19-1.31,.37-.31,.66-.67,.56-1.21-.11-.56-.52-.82-1.02-.95-5.05-1.32-10.09-2.64-15.14-3.95-1.06-.27-2.11-.55-3.17-.81-.89-.22-1.77-.49-2.67-.7-.49-.16-.99-.28-1.5-.34-.83-.09-1.54,.25-2.24,.65-5.31,3.09-10.62,6.17-15.92,9.26-1.67,.97-3.38,1.88-4.98,2.96C1.23,14.38,0,16.41,0,19.11c0,7.93,0,15.87,0,23.8,0,1.34,.57,2.35,1.74,3.03,4.35,2.5,8.69,5.01,13.03,7.52,2.42,1.4,4.84,2.79,7.26,4.19,.41,.24,.82,.39,1.3,.25,.74-.22,1.08-.73,1.08-1.62,0-5.58,0-11.17,0-16.75,0-2.22,0-4.44,0-6.66,0-1.3-.51-2.35-1.65-3-.4-.23-.81-.47-1.21-.7-1.92-1.08-3.85-2.17-5.77-3.26-1.1-.62-2.21-1.25-3.31-1.87-2.17-1.22-4.35-2.44-6.52-3.67-1.05-.6-1.55-1.66-1.3-2.77,.29-1.33,1.52-2.12,2.91-1.79,2.27,.54,4.54,1.14,6.8,1.72,3.79,.96,7.58,1.93,11.38,2.89,.83,.21,1.65,.11,2.41-.32,0-.03-.02-.07-.03-.1,0,.03,.02,.07,.03,.1,1.06-.59,2.12-1.18,3.18-1.78Z"/></g></g></svg>