<?xml version="1.0" encoding="UTF-8"?>
<svg id="Layer_2" xmlns="http://www.w3.org/2000/svg" viewBox="0 0 138.44 57.96">
<defs><style>.cls-1{fill:#fff;}</style></defs>
<g id="Layer_1-2"><g><g><path class="cls-1" d="M28.14,20.1c1.06-.59,2.12-1.18,3.18-1.78,5.34-3.01,10.67-6.02,16.01-9.04,.74-.42,1.53-.77,2.19-1.31,.37-.31,.66-.67,.56-1.21-.11-.56-.52-.82-1.02-.95-5.05-1.32-10.09-2.64-15.14-3.95-1.06-.27-2.11-.55-3.17-.81-.89-.22-1.77-.49-2.67-.7-.49-.16-.99-.28-1.5-.34-.83-.09-1.54,.25-2.24,.65-5.31,3.09-10.62,6.17-15.92,9.26-1.67,.97-3.38,1.88-4.98,2.96C1.23,14.38,0,16.41,0,19.11c0,7.93,0,15.87,0,23.8,0,1.34,.57,2.35,1.74,3.03,4.35,2.5,8.69,5.01,13.03,7.52,2.42,1.4,4.84,2.79,7.26,4.19,.41,.24,.82,.39,1.3,.25,.74-.22,1.08-.73,1.08-1.62,0-5.58,0-11.17,0-16.75,0-2.22,0-4.44,0-6.66,0-1.3-.51-2.35-1.65-3-.4-.23-.81-.47-1.21-.7-1.92-1.08-3.85-2.17-5.77-3.26-1.1-.62-2.21-1.25-3.31-1.87-2.17-1.22-4.35-2.44-6.52-3.67-1.05-.6-1.55-1.66-1.3-2.77,.29-1.33,1.52-2.12,2.91-1.79,2.27,.54,4.54,1.14,6.8,1.72,3.79,.96,7.58,1.93,11.38,2.89,.83,.21,1.65,.11,2.41-.32Zm13.95-4.95c.12,.07,.21,.12,.29,.17,1.71,.95,3.42,1.89,5.09,2.9,.93,.57,.9,1.58-.05,2.12-5.11,2.88-10.22,5.76-15.33,8.64-.59,.34-1.23,.62-1.78,1.01-1,.71-1.43,1.72-1.43,2.96,.02,3.38,0,6.75,0,10.13,0,4.41,.02,8.82-.01,13.24-.01,1.36,1.29,2.02,2.37,1.36,2.41-1.46,4.87-2.83,7.31-4.24,4.34-2.51,8.69-5.01,13.03-7.52,1.09-.63,1.69-1.59,1.69-2.83,.02-7.94,0-15.89,0-23.83,0-1.55-.52-2.82-1.96-3.59-1.68-.91-3.35-1.83-5.02-2.75-.11-.06-.21-.08-.33-.01-1.28,.75-2.57,1.49-3.9,2.26Z"/><path class="cls-1" d="M53.3,19.25c0-1.55-.52-2.82-1.96-3.59-1.68-.91-3.35-1.83-5.02-2.75-.11-.06-.21-.08-.33-.01-1.28,.75-2.57,1.49-3.9,2.26,.12,.07,.21,.12,.29,.17,1.71,.95,3.42,1.89,5.09,2.9,.93,.57,.9,1.58-.05,2.12-5.11,2.88-10.22,5.76-15.33,8.64-.59,.34-1.23,.62-1.78,1.01-1,.71-1.43,1.72-1.43,2.96,.02,3.38,0,6.75,0,10.13,0,4.41,.02,8.82-.01,13.24-.01,1.36,1.29,2.02,2.37,1.36,2.41-1.46,4.87-2.83,7.31-4.24,4.34-2.51,8.69-5.01,13.03-7.52,1.09-.63,1.69-1.59,1.69-2.83,.02-7.94,0-15.89,0-23.83Z"/><path class="cls-1" d="M31.33,18.32c5.34-3.01,10.67-6.02,16.01-9.04,.74-.42,1.53-.77,2.19-1.31,.37-.31,.66-.67,.56-1.21-.11-.56-.52-.82-1.02-.95-5.05-1.32-10.09-2.64-15.14-3.95-1.06-.27-2.11-.55-3.17-.81-.89-.22-1.77-.49-2.67-.7-.49-.16-.99-.28-1.5-.34-.83-.09-1.54,.25-2.24,.65-5.31,3.09-10.62,6.17-15.92,9.26-1.67,.97-3.38,1.88-4.98,2.96C1.23,14.38,0,16.41,0,19.11c0,7.93,0,15.87,0,23.8,0,1.34,.57,2.35,1.74,3.03,4.35,2.5,8.69,5.01,13.03,7.52,2.42,1.4,4.84,2.79,7.26,4.19,.41,.24,.82,.39,1.3,.25,.74-.22,1.08-.73,1.08-1.62,0-5.58,0-11.17,0-16.75,0-2.22,0-4.44,0-6.66,0-1.3-.51-2.35-1.65-3-.4-.23-.81-.47-1.21-.7-1.92-1.08-3.85-2.17-5.77-3.26-1.1-.62-2.21-1.25-3.31-1.87-2.17-1.22-4.35-2.44-6.52-3.67-1.05-.6-1.55-1.66-1.3-2.77,.29-1.33,1.52-2.12,2.91-1.79,2.27,.54,4.54,1.14,6.8,1.72,3.79,.96,7.58,1.93,11.38,2.89,.83,.21,1.65,.11,2.41-.32,0-.03-.02-.07-.03-.1,0,.03,.02,.07,.03,.1,1.06-.59,2.12-1.18,3.18-1.78Z"/></g><g><path class="cls-1" d="M65.91,17.79h14.28c.31,0,.56,.25,.56,.56v5.04c0,.31-.25,.56-.56,.56h-7.18c-.31,0-.56,.25-.56,.56v3.26c0,.31,.25,.56,.56,.56h4.61c.31,0,.56,.25,.56,.56v5.12c0,.31-.25,.56-.56,.56h-4.61c-.31,0-.56,.25-.56,.56v8.79c0,.31-.25,.56-.56,.56h-3.26c-1.81,0-3.28-1.47-3.28-3.28V18.35c0-.31,.25-.56,.56-.56Z"/><path class="cls-1" d="M83.61,42.99c-1.07-1.25-1.6-3.06-1.6-5.43v-11.24c0-.31,.25-.56,.56-.56h5.35c.31,0,.56,.25,.56,.56v10.65c0,.84,.18,1.46,.53,1.85,.35,.39,.9,.59,1.63,.59,.5,0,1.01-.13,1.51-.39,.43-.23,.8-.5,1.1-.82,.09-.1,.14-.24,.14-.38v-11.5c0-.31,.25-.56,.56-.56h5.35c.31,0,.56,.25,.56,.56v17.59c0,.31-.25,.56-.56,.56h-5c-.28,0-.52-.21-.55-.49h0c-.05-.41-.51-.62-.85-.4-1.35,.86-2.95,1.28-4.8,1.28s-3.42-.62-4.49-1.87Z"/><path class="cls-1" d="M105.58,43.03c-1.01-1.22-1.51-2.95-1.51-5.19v-6.03c0-.31-.25-.56-.56-.56h-1.02c-.31,0-.56-.25-.56-.56v-4.37c0-.31,.25-.56,.56-.56h1.02c.31,0,.56-.25,.56-.56v-2.85c0-.25,.17-.47,.41-.54l5.35-1.47c.36-.1,.71,.17,.71,.54v4.31c0,.31,.25,.56,.56,.56h2.92c.32,0,.57,.26,.56,.58l-.5,4.37c-.01,.3-.26,.53-.56,.53h-2.42c-.31,0-.56,.25-.56,.56v5.48c0,.79,.17,1.35,.5,1.68,.33,.33,.87,.49,1.6,.49,.44,0,.89-.06,1.34-.17,.35-.09,.69,.18,.69,.54v3.81c0,.22-.13,.43-.33,.52-1.15,.48-2.49,.72-4.04,.72-2.13,0-3.71-.61-4.71-1.84Z"/><path class="cls-1" d="M118.55,31.17h-1.2c-.33,0-.59-.29-.55-.61l.44-4.29c.03-.28,.27-.5,.55-.5h7.23c.31,0,.56,.25,.56,.56v17.59c0,.31-.25,.56-.56,.56h-5.35c-.31,0-.56-.25-.56-.56v-12.18c0-.31-.25-.56-.56-.56Zm.6-13.26h5.87c.31,0,.56,.25,.56,.56v4.25c0,.31-.25,.56-.56,.56h-5.87c-.31,0-.56-.25-.56-.56v-4.25c0-.31,.25-.56,.56-.56Z"/><path class="cls-1" d="M130.3,43.42c-.86-.96-1.29-2.49-1.29-4.6V18.43c0-.31,.25-.56,.56-.56h2.62c1.82,0,3.29,1.47,3.29,3.29v16.83c0,.55,.1,.93,.29,1.14,.19,.21,.52,.32,.98,.32,.38,0,.72-.03,1.03-.1,.34-.07,.66,.2,.66,.55v3.81c0,.22-.13,.43-.34,.51-.5,.21-.98,.37-1.44,.46-.56,.12-1.27,.18-2.12,.18-1.97,0-3.39-.48-4.25-1.44Z"/></g></g></g></svg>