<?xml version="1.0" encoding="UTF-8"?><svg id="Layer_2" xmlns="http://www.w3.org/2000/svg" xmlns:xlink="http://www.w3.org/1999/xlink" viewBox="0 0 253.62 106.18"><defs><style>.cls-1{fill:url(#linear-gradient);}.cls-2{fill:#fff;}.cls-3{fill:url(#linear-gradient-2);}</style><linearGradient id="linear-gradient" x1="57.59" y1="72.69" x2="96.05" y2="49.87" gradientTransform="matrix(1, 0, 0, 1, 0, 0)" gradientUnits="userSpaceOnUse"><stop offset=".02" stop-color="#26a9e0"/><stop offset="1" stop-color="#1b75bb"/></linearGradient><linearGradient id="linear-gradient-2" x1="-8.85" y1="14.04" x2="69.82" y2="61.31" gradientTransform="matrix(1, 0, 0, 1, 0, 0)" gradientUnits="userSpaceOnUse"><stop offset=".2" stop-color="#37b34a"/><stop offset=".37" stop-color="#4bb747"/><stop offset=".72" stop-color="#80c240"/><stop offset=".79" stop-color="#8bc53f"/></linearGradient></defs><g id="Layer_1-2"><g><g><path d="M51.56,36.82c1.94-1.09,3.89-2.16,5.83-3.26,9.78-5.51,19.56-11.03,29.32-16.56,1.35-.77,2.79-1.4,4.01-2.4,.69-.56,1.21-1.24,1.02-2.21-.2-1.03-.95-1.5-1.87-1.74-9.24-2.42-18.49-4.84-27.74-7.24-1.93-.5-3.87-1.01-5.81-1.48-1.63-.4-3.25-.9-4.89-1.29-.9-.3-1.82-.52-2.75-.62-1.53-.17-2.82,.46-4.1,1.2-9.72,5.66-19.45,11.3-29.17,16.97-3.06,1.78-6.19,3.44-9.13,5.42C2.25,26.34,0,30.06,0,35.01c0,14.54,0,29.07,0,43.61,0,2.45,1.04,4.31,3.18,5.54,7.96,4.58,15.91,9.18,23.87,13.77,4.43,2.56,8.87,5.11,13.29,7.68,.75,.43,1.5,.72,2.38,.46,1.35-.4,1.98-1.34,1.98-2.98,0-10.23,0-20.46,0-30.68,0-4.06,0-8.13,0-12.19,0-2.39-.93-4.3-3.02-5.5-.74-.43-1.48-.87-2.22-1.29-3.52-1.98-7.05-3.98-10.57-5.96-2.02-1.14-4.04-2.28-6.06-3.42-3.98-2.24-7.97-4.48-11.94-6.73-1.93-1.09-2.83-3.05-2.39-5.07,.54-2.43,2.78-3.88,5.33-3.28,4.17,.99,8.31,2.1,12.46,3.15,6.95,1.77,13.89,3.54,20.84,5.29,1.53,.38,3.02,.21,4.41-.59Zm25.56-9.06c.23,.13,.38,.22,.53,.31,3.13,1.73,6.27,3.46,9.33,5.32,1.71,1.04,1.66,2.89-.09,3.88-9.36,5.28-18.72,10.56-28.08,15.83-1.09,.61-2.24,1.13-3.26,1.86-1.83,1.31-2.62,3.16-2.61,5.41,.03,6.18,.01,12.37,.01,18.55,0,8.08,.04,16.17-.02,24.25-.02,2.5,2.36,3.69,4.34,2.49,4.42-2.67,8.92-5.19,13.39-7.77,7.96-4.59,15.91-9.18,23.87-13.78,2-1.15,3.1-2.91,3.1-5.19,.03-14.55,.02-29.11,.02-43.66,0-2.84-.96-5.16-3.59-6.58-3.07-1.66-6.13-3.36-9.19-5.04-.2-.11-.38-.15-.6-.02-2.35,1.37-4.71,2.73-7.14,4.14Z"/><path class="cls-1" d="M97.64,35.26c0-2.84-.96-5.16-3.59-6.58-3.07-1.66-6.13-3.36-9.19-5.04-.2-.11-.38-.15-.6-.02-2.35,1.37-4.71,2.73-7.14,4.14,.23,.13,.38,.22,.53,.31,3.13,1.73,6.27,3.46,9.33,5.32,1.71,1.04,1.66,2.89-.09,3.88-9.36,5.28-18.72,10.56-28.08,15.83-1.09,.61-2.24,1.13-3.26,1.86-1.83,1.31-2.62,3.16-2.61,5.41,.03,6.18,.01,12.37,.01,18.55,0,8.08,.04,16.17-.02,24.25-.02,2.5,2.36,3.69,4.34,2.49,4.42-2.67,8.92-5.19,13.39-7.77,7.96-4.59,15.91-9.18,23.87-13.78,2-1.15,3.1-2.91,3.1-5.19,.03-14.55,.02-29.11,.02-43.66Z"/><path class="cls-3" d="M57.39,33.56c9.78-5.51,19.56-11.03,29.32-16.56,1.35-.77,2.79-1.4,4.01-2.4,.69-.56,1.21-1.24,1.02-2.21-.2-1.03-.95-1.5-1.87-1.74-9.24-2.42-18.49-4.84-27.74-7.24-1.93-.5-3.87-1.01-5.81-1.48-1.63-.4-3.25-.9-4.89-1.29-.9-.3-1.82-.52-2.75-.62-1.53-.17-2.82,.46-4.1,1.2-9.72,5.66-19.45,11.3-29.17,16.97-3.06,1.78-6.19,3.44-9.13,5.42C2.25,26.34,0,30.06,0,35.01c0,14.54,0,29.07,0,43.61,0,2.45,1.04,4.31,3.18,5.54,7.96,4.58,15.91,9.18,23.87,13.77,4.43,2.56,8.87,5.11,13.29,7.68,.75,.43,1.5,.72,2.38,.46,1.35-.4,1.98-1.34,1.98-2.98,0-10.23,0-20.46,0-30.68,0-4.06,0-8.13,0-12.19,0-2.39-.93-4.3-3.02-5.5-.74-.43-1.48-.87-2.22-1.29-3.52-1.98-7.05-3.98-10.57-5.96-2.02-1.14-4.04-2.28-6.06-3.42-3.98-2.24-7.97-4.48-11.94-6.73-1.93-1.09-2.83-3.05-2.39-5.07,.54-2.43,2.78-3.88,5.33-3.28,4.17,.99,8.31,2.1,12.46,3.15,6.95,1.77,13.89,3.54,20.84,5.29,1.53,.38,3.02,.21,4.41-.59-.01-.06-.03-.13-.05-.19,.02,.06,.03,.13,.05,.19,1.94-1.09,3.89-2.16,5.83-3.26Z"/></g><g><path class="cls-2" d="M120.74,32.59h26.16c.56,0,1.02,.46,1.02,1.02v9.23c0,.56-.46,1.02-1.02,1.02h-13.15c-.56,0-1.02,.46-1.02,1.02v5.98c0,.56,.46,1.02,1.02,1.02h8.44c.56,0,1.02,.46,1.02,1.02v9.38c0,.56-.46,1.02-1.02,1.02h-8.44c-.56,0-1.02,.46-1.02,1.02v16.1c0,.56-.46,1.02-1.02,1.02h-5.98c-3.32,0-6.01-2.69-6.01-6.01V33.62c0-.56,.46-1.02,1.02-1.02Z"/><path class="cls-2" d="M153.16,78.75c-1.95-2.29-2.93-5.6-2.93-9.94v-20.59c0-.56,.46-1.02,1.02-1.02h9.81c.56,0,1.02,.46,1.02,1.02v19.51c0,1.54,.33,2.67,.98,3.4,.65,.72,1.65,1.08,2.99,1.08,.92,0,1.85-.24,2.77-.72,.79-.41,1.46-.92,2.01-1.51,.17-.19,.26-.44,.26-.69v-21.06c0-.56,.46-1.02,1.02-1.02h9.81c.56,0,1.02,.46,1.02,1.02v32.22c0,.56-.46,1.02-1.02,1.02h-9.17c-.52,0-.95-.39-1.01-.9h0c-.09-.75-.93-1.13-1.56-.73-2.47,1.57-5.4,2.35-8.79,2.35s-6.27-1.14-8.23-3.43Z"/><path class="cls-2" d="M193.41,78.82c-1.85-2.24-2.78-5.41-2.78-9.51v-11.05c0-.56-.46-1.02-1.02-1.02h-1.86c-.56,0-1.02-.46-1.02-1.02v-8c0-.56,.46-1.02,1.02-1.02h1.86c.56,0,1.02-.46,1.02-1.02v-5.21c0-.46,.31-.86,.75-.99l9.81-2.69c.65-.18,1.29,.31,1.29,.99v7.9c0,.56,.46,1.02,1.02,1.02h5.35c.58,0,1.05,.49,1.02,1.07l-.92,8c-.02,.55-.47,.98-1.02,.98h-4.43c-.56,0-1.02,.46-1.02,1.02v10.04c0,1.45,.3,2.47,.91,3.07,.61,.6,1.59,.9,2.93,.9,.81,0,1.63-.11,2.46-.32,.64-.16,1.26,.32,1.26,.98v6.98c0,.41-.24,.79-.61,.95-2.1,.88-4.56,1.32-7.39,1.32-3.91,0-6.79-1.12-8.64-3.36Z"/><path class="cls-2" d="M217.17,57.1h-2.2c-.61,0-1.08-.52-1.02-1.13l.8-7.86c.05-.52,.49-.92,1.02-.92h13.25c.56,0,1.02,.46,1.02,1.02v32.22c0,.56-.46,1.02-1.02,1.02h-9.81c-.56,0-1.02-.46-1.02-1.02v-22.32c0-.56-.46-1.02-1.02-1.02Zm1.1-24.29h10.75c.56,0,1.02,.46,1.02,1.02v7.79c0,.56-.46,1.02-1.02,1.02h-10.75c-.56,0-1.02-.46-1.02-1.02v-7.79c0-.56,.46-1.02,1.02-1.02Z"/><path class="cls-2" d="M238.71,79.55c-1.58-1.76-2.36-4.57-2.36-8.42V33.76c0-.56,.46-1.02,1.02-1.02h4.8c3.33,0,6.03,2.7,6.03,6.03v30.84c0,1.01,.18,1.71,.54,2.1,.36,.39,.96,.58,1.8,.58,.69,0,1.32-.06,1.88-.18,.63-.14,1.21,.36,1.21,1v6.97c0,.41-.24,.78-.61,.94-.91,.39-1.79,.67-2.63,.85-1.03,.22-2.32,.33-3.88,.33-3.62,0-6.21-.88-7.79-2.64Z"/></g></g></g></svg>